{
  "accessors": [
    {
      "bufferView": 2,
      "componentType": 5126,
      "count": 36050,
      "max": [
        2.2076709270477295,
        2.544929027557373,
        2.242216110229492
      ],
      "min": [
        0.0,
        0.0,
        0.0
      ],
      "type": "VEC3"
    },
    {
      "bufferView": 2,
      "byteOffset": 432600,
      "componentType": 5126,
      "count": 36050,
      "max": [
        0.9999909996986389,
        0.9999839067459106,
        0.9999918937683105
      ],
      "min": [
        -0.9998957514762878,
        -0.9988058805465698,
        -0.9999647736549377
      ],
      "type": "VEC3"
    },
    {
      "bufferView": 1,
      "componentType": 5126,
      "count": 36050,
      "max": [
        0.9910529851913452,
        0.9987469911575317
      ],
      "min": [
        0.0039059999398887157,
        0.0039059999398887157
      ],
      "type": "VEC2"
    },
    {
      "bufferView": 0,
      "componentType": 5125,
      "count": 199734,
      "type": "SCALAR"
    }
  ],
  "asset": {
    "extras": {
      "author": "Jörg Ledergerber (https://sketchfab.com/jledergerber)",
      "license": "CC-BY-4.0 (http://creativecommons.org/licenses/by/4.0/)",
      "source": "https://sketchfab.com/3d-models/fruit-aple-3dscanfruitveg-ec5fb91ba449448b87bab2eb11e284d1",
      "title": "Fruit - Aple #3DScanFruitVeg"
    },
    "generator": "Sketchfab-12.67.0",
    "version": "2.0"
  },
  "bufferViews": [
    {
      "buffer": 0,
      "byteLength": 798936,
      "name": "floatBufferViews",
      "target": 34963
    },
    {
      "buffer": 0,
      "byteLength": 288400,
      "byteOffset": 798936,
      "byteStride": 8,
      "name": "floatBufferViews",
      "target": 34962
    },
    {
      "buffer": 0,
      "byteLength": 865200,
      "byteOffset": 1087336,
      "byteStride": 12,
      "name": "floatBufferViews",
      "target": 34962
    }
  ],
  "buffers": [
    {
      "byteLength": 1952536,
      "uri": "scene.bin"
    }
  ],
  "extensionsUsed": [
    "KHR_materials_unlit"
  ],
  "images": [
    {
      "uri": "textures/material_0_baseColor.png"
    }
  ],
  "materials": [
    {
      "doubleSided": true,
      "extensions": {
        "KHR_materials_unlit": {}
      },
      "name": "material_0",
      "pbrMetallicRoughness": {
        "baseColorTexture": {
          "index": 0
        },
        "metallicFactor": 0.0
      }
    }
  ],
  "meshes": [
    {
      "name": "Object_0",
      "primitives": [
        {
          "attributes": {
            "NORMAL": 1,
            "POSITION": 0,
            "TEXCOORD_0": 2
          },
          "indices": 3,
          "material": 0,
          "mode": 4
        }
      ]
    }
  ],
  "nodes": [
    {
      "children": [
        1
      ],
      "matrix": [
        0.8931096792221069,
        -0.38979688286781305,
        -0.2245294302701951,
        0.0,
        0.4346731901168823,
        0.8763229846954346,
        0.20764702558517475,
        0.0,
        0.11582013219594955,
        -0.28304851055145286,
        0.9520868062973021,
        0.0,
        2.528310775756836,
        5.0980167388916,
        7.024034976959229,
        1.0
      ],
      "name": "Sketchfab_model"
    },
    {
      "children": [
        2
      ],
      "matrix": [
        1.0,
        0.0,
        0.0,
        0.0,
        0.0,
        1.0,
        0.0,
        0.0,
        0.0,
        0.0,
        1.0,
        0.0,
        -0.7979469895362854,
        -7.004601955413818,
        -1.1557259559631348,
        1.0
      ],
      "name": "apfel.obj.cleaner.gles"
    },
    {
      "mesh": 0,
      "name": "Object_2"
    }
  ],
  "samplers": [
    {
      "magFilter": 9729,
      "minFilter": 9987,
      "wrapS": 10497,
      "wrapT": 10497
    }
  ],
  "scene": 0,
  "scenes": [
    {
      "name": "Sketchfab_Scene",
      "nodes": [
        0
      ]
    }
  ],
  "textures": [
    {
      "sampler": 0,
      "source": 0
    }
  ]
}
