{
  "accessors": [
    {
      "bufferView": 2,
      "componentType": 5126,
      "count": 7721,
      "max": [
        1.7583849430084229,
        9.530051231384277,
        2.113236904144287
      ],
      "min": [
        -2.5412180423736572,
        6.370907783508301,
        -0.7518789768218994
      ],
      "type": "VEC3"
    },
    {
      "bufferView": 2,
      "byteOffset": 92652,
      "componentType": 5126,
      "count": 7721,
      "max": [
        0.9992876648902893,
        0.9997885227203369,
        0.9994634985923767
      ],
      "min": [
        -0.9987722635269165,
        -0.9999989867210388,
        -0.9998010993003845
      ],
      "type": "VEC3"
    },
    {
      "bufferView": 1,
      "componentType": 5126,
      "count": 7721,
      "max": [
        0.685135006904602,
        0.9998990297317505
      ],
      "min": [
        0.00011899999663000926,
        3.5000000934815034e-05
      ],
      "type": "VEC2"
    },
    {
      "bufferView": 0,
      "componentType": 5125,
      "count": 45138,
      "type": "SCALAR"
    }
  ],
  "asset": {
    "extras": {
      "author": "Grasiele Bastos (https://sketchfab.com/grasielebastos)",
      "license": "CC-BY-4.0 (http://creativecommons.org/licenses/by/4.0/)",
      "source": "https://sketchfab.com/3d-models/papaya-3d-photogrammetry-3331e1a05cad48ecb95d11e8d7930a20",
      "title": "Papaya 3D photogrammetry"
    },
    "generator": "Sketchfab-13.46.0",
    "version": "2.0"
  },
  "bufferViews": [
    {
      "buffer": 0,
      "byteLength": 180552,
      "name": "floatBufferViews",
      "target": 34963
    },
    {
      "buffer": 0,
      "byteLength": 61768,
      "byteOffset": 180552,
      "byteStride": 8,
      "name": "floatBufferViews",
      "target": 34962
    },
    {
      "buffer": 0,
      "byteLength": 185304,
      "byteOffset": 242320,
      "byteStride": 12,
      "name": "floatBufferViews",
      "target": 34962
    }
  ],
  "buffers": [
    {
      "byteLength": 427624,
      "uri": "scene.bin"
    }
  ],
  "images": [
    {
      "uri": "textures/mamao.1001_baseColor.jpeg"
    },
    {
      "uri": "textures/mamao.1001_metallicRoughness.png"
    }
  ],
  "materials": [
    {
      "doubleSided": true,
      "name": "mamao.1001",
      "occlusionTexture": {
        "index": 1
      },
      "pbrMetallicRoughness": {
        "baseColorTexture": {
          "index": 0
        },
        "metallicFactor": 0.0,
        "metallicRoughnessTexture": {
          "index": 1
        },
        "roughnessFactor": 0.4102839170557473
      }
    }
  ],
  "meshes": [
    {
      "name": "Object_0",
      "primitives": [
        {
          "attributes": {
            "NORMAL": 1,
            "POSITION": 0,
            "TEXCOORD_0": 2
          },
          "indices": 3,
          "material": 0,
          "mode": 4
        }
      ]
    }
  ],
  "nodes": [
    {
      "children": [
        1
      ],
      "matrix": [
        0.052288345992565155,
        0.0,
        0.0,
        0.0,
        0.0,
        1.1610345128102474e-17,
        -0.052288345992565155,
        0.0,
        0.0,
        0.052288345992565155,
        1.1610345128102474e-17,
        0.0,
        0.0,
        0.0,
        0.0,
        1.0
      ],
      "name": "Sketchfab_model"
    },
    {
      "children": [
        2
      ],
      "name": "mamao.obj.cleaner.materialmerger.gles"
    },
    {
      "mesh": 0,
      "name": "Object_2"
    }
  ],
  "samplers": [
    {
      "magFilter": 9729,
      "minFilter": 9987,
      "wrapS": 10497,
      "wrapT": 10497
    }
  ],
  "scene": 0,
  "scenes": [
    {
      "name": "Sketchfab_Scene",
      "nodes": [
        0
      ]
    }
  ],
  "textures": [
    {
      "sampler": 0,
      "source": 0
    },
    {
      "sampler": 0,
      "source": 1
    }
  ]
}
